<svg width="245" height="259" viewBox="0 0 245 259" fill="none" xmlns="http://www.w3.org/2000/svg">
<g filter="url(#filter0_d_521_2809)">
<path d="M4 18.738C4 8.79691 12.0589 0.738037 22 0.738037H222.899C232.84 0.738037 240.899 8.79691 240.899 18.738V121.859H4V18.738Z" fill="url(#paint0_linear_521_2809)"/>
<path d="M4 232.106C4 242.047 12.0589 250.106 22 250.106H222.899C232.84 250.106 240.899 242.047 240.899 232.106V127.203H4V232.106Z" fill="url(#paint1_linear_521_2809)"/>
<rect x="4.5" y="1.23804" width="235.899" height="248.367" rx="17.5" stroke="url(#paint2_linear_521_2809)"/>
<rect opacity="0.9" x="5.19647" y="121.581" width="234.506" height="2.39292" fill="black"/>
<rect opacity="0.9" x="5.19647" y="120.384" width="234.506" height="1.19646" fill="#2B2B2B"/>
<g opacity="0.9">
<rect x="5.19647" y="123.974" width="234.506" height="1.19646" fill="#494949"/>
<rect x="5.19647" y="123.974" width="234.506" height="1.19646" fill="#494949"/>
</g>
<rect opacity="0.9" x="5.19647" y="125.17" width="234.506" height="2.39292" fill="#535353"/>
</g>
<defs>
<filter id="filter0_d_521_2809" x="0" y="0.738037" width="244.899" height="257.368" filterUnits="userSpaceOnUse" color-interpolation-filters="sRGB">
<feFlood flood-opacity="0" result="BackgroundImageFix"/>
<feColorMatrix in="SourceAlpha" type="matrix" values="0 0 0 0 0 0 0 0 0 0 0 0 0 0 0 0 0 0 127 0" result="hardAlpha"/>
<feOffset dy="4"/>
<feGaussianBlur stdDeviation="2"/>
<feComposite in2="hardAlpha" operator="out"/>
<feColorMatrix type="matrix" values="0 0 0 0 0 0 0 0 0 0 0 0 0 0 0 0 0 0 0.25 0"/>
<feBlend mode="normal" in2="BackgroundImageFix" result="effect1_dropShadow_521_2809"/>
<feBlend mode="normal" in="SourceGraphic" in2="effect1_dropShadow_521_2809" result="shape"/>
</filter>
<linearGradient id="paint0_linear_521_2809" x1="122.45" y1="0.738037" x2="122.45" y2="121.859" gradientUnits="userSpaceOnUse">
<stop stop-color="#444444"/>
<stop offset="1" stop-color="#333333"/>
</linearGradient>
<linearGradient id="paint1_linear_521_2809" x1="122.45" y1="250.106" x2="122.45" y2="127.203" gradientUnits="userSpaceOnUse">
<stop stop-color="#242424"/>
<stop offset="1" stop-color="#1C1C1C"/>
</linearGradient>
<linearGradient id="paint2_linear_521_2809" x1="122.45" y1="0.738037" x2="122.45" y2="250.105" gradientUnits="userSpaceOnUse">
<stop stop-color="#696969"/>
<stop offset="0.802083" stop-color="#696969" stop-opacity="0"/>
</linearGradient>
</defs>
</svg>
