<svg width="55" height="55" viewBox="0 0 124 124" fill="none" xmlns="http://www.w3.org/2000/svg">
<path d="M119.5 62C119.5 94.8994 93.2705 121.5 61 121.5C28.7295 121.5 2.5 94.8994 2.5 62C2.5 29.1006 28.7295 2.5 61 2.5C93.2705 2.5 119.5 29.1006 119.5 62Z" fill="#FFD5D5" stroke="#FF1D1D" stroke-width="5"/>
<path d="M30.7784 51.8182V78H27.7614V51.8182H30.7784ZM44.2816 78.4091C42.5089 78.4091 40.9535 77.9872 39.6154 77.1435C38.2859 76.2997 37.2461 75.1193 36.4961 73.6023C35.7546 72.0852 35.3839 70.3125 35.3839 68.2841C35.3839 66.2386 35.7546 64.4531 36.4961 62.9276C37.2461 61.402 38.2859 60.2173 39.6154 59.3736C40.9535 58.5298 42.5089 58.108 44.2816 58.108C46.0543 58.108 47.6055 58.5298 48.935 59.3736C50.2731 60.2173 51.3129 61.402 52.0543 62.9276C52.8043 64.4531 53.1793 66.2386 53.1793 68.2841C53.1793 70.3125 52.8043 72.0852 52.0543 73.6023C51.3129 75.1193 50.2731 76.2997 48.935 77.1435C47.6055 77.9872 46.0543 78.4091 44.2816 78.4091ZM44.2816 75.6989C45.6282 75.6989 46.7362 75.3537 47.6055 74.6634C48.4748 73.973 49.1183 73.0653 49.5359 71.9403C49.9535 70.8153 50.1623 69.5966 50.1623 68.2841C50.1623 66.9716 49.9535 65.7486 49.5359 64.6151C49.1183 63.4815 48.4748 62.5653 47.6055 61.8665C46.7362 61.1676 45.6282 60.8182 44.2816 60.8182C42.935 60.8182 41.8271 61.1676 40.9577 61.8665C40.0884 62.5653 39.445 63.4815 39.0273 64.6151C38.6097 65.7486 38.4009 66.9716 38.4009 68.2841C38.4009 69.5966 38.6097 70.8153 39.0273 71.9403C39.445 73.0653 40.0884 73.973 40.9577 74.6634C41.8271 75.3537 42.935 75.6989 44.2816 75.6989ZM65.7109 85.7727C64.2536 85.7727 63.0007 85.5852 61.9524 85.2102C60.9041 84.8438 60.0305 84.358 59.3317 83.7528C58.6413 83.1563 58.0916 82.517 57.6825 81.8352L60.0859 80.1477C60.3587 80.5057 60.7038 80.9148 61.1214 81.375C61.5391 81.8438 62.1101 82.2486 62.8345 82.5895C63.5675 82.9389 64.5263 83.1136 65.7109 83.1136C67.2962 83.1136 68.6044 82.7301 69.6357 81.9631C70.6669 81.196 71.1825 79.9943 71.1825 78.358V74.3693H70.9268C70.7053 74.7273 70.3899 75.1705 69.9808 75.6989C69.5803 76.2188 69.0007 76.6832 68.2422 77.0923C67.4922 77.4929 66.478 77.6932 65.1996 77.6932C63.6143 77.6932 62.1911 77.3182 60.9297 76.5682C59.6768 75.8182 58.6839 74.7273 57.951 73.2955C57.2266 71.8636 56.8643 70.125 56.8643 68.0795C56.8643 66.0682 57.218 64.3168 57.9254 62.8253C58.6328 61.3253 59.6172 60.1662 60.8786 59.348C62.1399 58.5213 63.5973 58.108 65.2507 58.108C66.5291 58.108 67.5433 58.321 68.2933 58.7472C69.0518 59.1648 69.6314 59.642 70.032 60.179C70.4411 60.7074 70.7564 61.142 70.978 61.483H71.2848V58.3636H74.1996V78.5625C74.1996 80.25 73.8161 81.6222 73.049 82.679C72.2905 83.7443 71.2678 84.5241 69.9808 85.0185C68.7024 85.5213 67.2791 85.7727 65.7109 85.7727ZM65.6087 74.983C66.8189 74.983 67.8416 74.706 68.6768 74.152C69.5121 73.598 70.147 72.8011 70.5817 71.7614C71.0163 70.7216 71.2337 69.4773 71.2337 68.0284C71.2337 66.6136 71.0206 65.3651 70.5945 64.2827C70.1683 63.2003 69.5376 62.3523 68.7024 61.7386C67.8672 61.125 66.8359 60.8182 65.6087 60.8182C64.3303 60.8182 63.2649 61.142 62.4126 61.7898C61.5689 62.4375 60.9339 63.3068 60.5078 64.3977C60.0902 65.4886 59.8814 66.6989 59.8814 68.0284C59.8814 69.392 60.0945 70.598 60.5206 71.6463C60.9553 72.6861 61.5945 73.5043 62.4382 74.1009C63.2905 74.6889 64.3473 74.983 65.6087 74.983ZM87.6996 78.4091C85.9268 78.4091 84.3714 77.9872 83.0334 77.1435C81.7038 76.2997 80.6641 75.1193 79.9141 73.6023C79.1726 72.0852 78.8018 70.3125 78.8018 68.2841C78.8018 66.2386 79.1726 64.4531 79.9141 62.9276C80.6641 61.402 81.7038 60.2173 83.0334 59.3736C84.3714 58.5298 85.9268 58.108 87.6996 58.108C89.4723 58.108 91.0234 58.5298 92.353 59.3736C93.6911 60.2173 94.7308 61.402 95.4723 62.9276C96.2223 64.4531 96.5973 66.2386 96.5973 68.2841C96.5973 70.3125 96.2223 72.0852 95.4723 73.6023C94.7308 75.1193 93.6911 76.2997 92.353 77.1435C91.0234 77.9872 89.4723 78.4091 87.6996 78.4091ZM87.6996 75.6989C89.0462 75.6989 90.1541 75.3537 91.0234 74.6634C91.8928 73.973 92.5362 73.0653 92.9538 71.9403C93.3714 70.8153 93.5803 69.5966 93.5803 68.2841C93.5803 66.9716 93.3714 65.7486 92.9538 64.6151C92.5362 63.4815 91.8928 62.5653 91.0234 61.8665C90.1541 61.1676 89.0462 60.8182 87.6996 60.8182C86.353 60.8182 85.245 61.1676 84.3757 61.8665C83.5064 62.5653 82.8629 63.4815 82.4453 64.6151C82.0277 65.7486 81.8189 66.9716 81.8189 68.2841C81.8189 69.5966 82.0277 70.8153 82.4453 71.9403C82.8629 73.0653 83.5064 73.973 84.3757 74.6634C85.245 75.3537 86.353 75.6989 87.6996 75.6989Z" fill="#FF0000"/>
</svg>